<?xml version="1.0" standalone="no"?>
<!DOCTYPE svg PUBLIC "-//W3C//DTD SVG 20010904//EN"
 "http://www.w3.org/TR/2001/REC-SVG-20010904/DTD/svg10.dtd">
<svg version="1.0" xmlns="http://www.w3.org/2000/svg"
 width="206.000000pt" height="118.000000pt" viewBox="0 0 206.000000 118.000000"
 preserveAspectRatio="xMidYMid meet">

<g transform="translate(0.000000,118.000000) scale(0.100000,-0.100000)"
fill="#000000" stroke="none">
<path d="M1434 1138 l-19 -23 23 19 c21 18 27 26 19 26 -2 0 -12 -10 -23 -22z"/>
<path d="M1309 1113 c-13 -16 -12 -17 4 -4 16 13 21 21 13 21 -2 0 -10 -8 -17
-17z"/>
<path d="M1366 1084 c-33 -28 -37 -37 -26 -47 8 -8 11 -8 6 0 -3 6 7 22 22 35
25 21 48 49 40 48 -2 -1 -21 -16 -42 -36z"/>
<path d="M1275 1059 c-9 -17 -14 -36 -12 -42 3 -7 -7 -25 -22 -42 -26 -30 -26
-30 -1 -9 59 47 55 47 85 4 15 -22 30 -38 33 -36 2 3 -13 25 -33 50 -31 38
-36 51 -31 76 7 38 1 38 -19 -1z"/>
<path d="M181 986 c-1 -55 1 -60 38 -97 39 -40 64 -48 77 -27 4 7 3 8 -5 4
-15 -10 -56 16 -77 49 -9 14 -20 48 -24 77 l-8 53 -1 -59z"/>
<path d="M1365 1000 c10 -11 20 -20 23 -20 3 0 -3 9 -13 20 -10 11 -20 20 -23
20 -3 0 3 -9 13 -20z"/>
<path d="M1360 917 c0 -16 29 -63 51 -82 l24 -20 -21 25 c-12 14 -29 39 -37
55 -9 17 -16 26 -17 22z"/>
<path d="M1107 882 c-22 -24 -21 -31 6 -41 17 -7 24 -4 33 12 23 41 -8 63 -39
29z"/>
<path d="M669 860 c-10 -6 -15 -18 -12 -33 2 -12 -3 -53 -11 -91 -9 -38 -14
-71 -11 -74 3 -3 5 2 5 11 0 9 4 17 9 17 5 0 11 -34 13 -75 2 -53 8 -80 20
-91 16 -16 19 -15 45 13 15 17 42 58 58 92 17 33 33 61 38 61 4 0 7 -15 7 -34
0 -45 15 -85 36 -93 8 -3 28 4 45 16 28 21 29 21 29 3 0 -30 27 -47 57 -36 40
14 64 53 65 106 1 57 -6 68 -41 68 -32 0 -45 -12 -81 -78 -14 -25 -33 -50 -43
-56 -31 -19 -39 10 -33 132 6 115 -4 146 -24 75 -14 -53 -113 -239 -125 -236
-6 2 -11 65 -13 150 -1 81 -6 151 -10 155 -4 4 -14 3 -23 -2z m371 -175 c29
-35 -16 -136 -54 -122 -24 9 -21 78 5 111 24 30 32 32 49 11z"/>
<path d="M175 807 c-40 -40 -65 -119 -64 -196 l1 -56 9 60 c17 116 55 196 103
215 18 8 19 9 3 9 -11 1 -34 -14 -52 -32z"/>
<path d="M1058 818 c-47 -72 -43 -93 6 -32 18 23 25 39 19 45 -7 7 -15 2 -25
-13z"/>
<path d="M1364 766 c-8 -22 3 -33 18 -18 9 9 9 15 0 24 -9 9 -13 7 -18 -6z"/>
<path d="M1135 738 c-5 -16 -35 -176 -35 -189 0 -26 28 -2 49 41 13 27 35 59
47 71 l24 22 0 -45 c0 -26 3 -53 6 -62 8 -22 47 -20 75 3 24 19 24 19 36 -10
15 -37 34 -37 76 1 38 33 47 36 47 17 0 -8 9 -22 19 -31 24 -22 67 -15 107 16
24 19 27 20 36 5 5 -10 17 -17 26 -17 16 1 16 1 0 10 -14 9 -15 15 -6 43 15
45 45 85 68 92 23 7 27 25 5 25 -24 0 -55 -31 -80 -82 -62 -119 -178 -120
-146 0 13 45 34 72 58 72 11 0 14 -7 10 -26 -3 -16 -1 -22 5 -16 17 17 4 47
-20 50 -36 5 -68 -23 -86 -74 -19 -56 -51 -94 -79 -94 -19 0 -19 5 -14 71 7
80 -8 91 -31 23 -14 -42 -48 -84 -68 -84 -17 0 -24 25 -18 60 8 38 -3 80 -20
80 -8 0 -29 -17 -46 -37 l-32 -38 7 35 c4 19 9 45 12 58 4 16 1 22 -11 22 -9
0 -19 -6 -21 -12z"/>
<path d="M606 607 c-19 -51 -50 -83 -86 -90 l-25 -4 26 -2 c31 -1 71 38 94 93
9 21 14 40 12 42 -2 3 -12 -15 -21 -39z"/>
<path d="M1798 589 c-27 -31 -42 -40 -55 -35 -14 6 -15 5 -6 -5 15 -15 52 7
83 51 29 41 22 37 -22 -11z"/>
<path d="M103 490 c0 -36 2 -50 4 -32 2 17 2 47 0 65 -2 17 -4 3 -4 -33z"/>
<path d="M453 500 c0 -30 2 -43 4 -27 2 15 2 39 0 55 -2 15 -4 2 -4 -28z"/>
<path d="M646 474 c-5 -13 -3 -14 7 -6 7 6 37 12 67 15 l55 3 -61 2 c-49 2
-63 -1 -68 -14z"/>
<path d="M1192 478 c-7 -7 -12 -16 -12 -22 0 -5 6 -2 13 7 8 11 31 17 67 20
l55 3 -55 2 c-33 1 -61 -3 -68 -10z"/>
<path d="M853 435 c-28 -13 -54 -21 -57 -17 -3 3 -6 -2 -6 -12 0 -10 5 -14 11
-10 6 3 33 -6 61 -21 27 -15 52 -25 55 -22 3 3 -13 15 -36 27 -23 11 -41 24
-41 29 0 5 16 15 35 21 19 6 35 16 35 21 0 11 5 12 -57 -16z"/>
<path d="M954 446 c-3 -7 -4 -33 -1 -57 l4 -44 1 48 2 49 60 -4 c33 -1 60 0
60 3 0 22 -118 27 -126 5z"/>
<path d="M1330 451 c0 -5 27 -11 59 -13 47 -2 57 0 49 10 -12 14 -108 17 -108
3z"/>
<path d="M1475 450 c-3 -5 1 -10 9 -10 8 0 18 5 21 10 3 6 -1 10 -9 10 -8 0
-18 -4 -21 -10z"/>
<path d="M933 405 c0 -27 2 -38 4 -22 2 15 2 37 0 50 -2 12 -4 0 -4 -28z"/>
<path d="M645 428 c5 -12 22 -17 66 -20 32 -1 59 0 59 5 0 4 -24 7 -53 7 -29
0 -59 6 -66 13 -10 10 -11 9 -6 -5z"/>
<path d="M1083 385 c0 -22 2 -30 4 -17 2 12 2 30 0 40 -3 9 -5 -1 -4 -23z"/>
<path d="M1329 393 c-8 -9 -9 -14 -3 -10 7 4 32 8 58 8 59 3 61 19 2 19 -29 0
-48 -6 -57 -17z"/>
<path d="M1680 406 c0 -9 50 -12 62 -5 8 6 -1 9 -24 9 -21 0 -38 -2 -38 -4z"/>
<path d="M1538 393 c7 -3 16 -2 19 1 4 3 -2 6 -13 5 -11 0 -14 -3 -6 -6z"/>
<path d="M1189 363 c10 -19 20 -23 61 -23 27 0 52 5 55 10 4 6 -14 10 -47 10
-30 0 -60 6 -67 13 -11 10 -11 8 -2 -10z"/>
<path d="M640 350 c0 -6 26 -10 59 -10 33 0 63 5 66 10 4 6 -18 10 -59 10 -37
0 -66 -4 -66 -10z"/>
<path d="M1337 349 c9 -9 26 -9 65 -2 l53 10 -64 2 c-49 1 -62 -2 -54 -10z"/>
<path d="M1638 353 c7 -3 16 -2 19 1 4 3 -2 6 -13 5 -11 0 -14 -3 -6 -6z"/>
<path d="M1680 350 c20 -13 70 -13 70 0 0 6 -19 10 -42 10 -32 0 -39 -3 -28
-10z"/>
<path d="M435 301 c14 -14 43 -24 95 -31 68 -9 240 -59 283 -81 30 -17 18 0
-15 21 -32 19 -30 23 17 33 12 3 8 5 -12 6 -17 0 -34 -3 -37 -8 -3 -5 -32 -1
-63 9 -32 10 -94 23 -138 30 -44 7 -96 18 -115 26 l-35 15 20 -20z"/>
<path d="M715 300 c-21 -6 -6 -8 52 -8 60 0 90 -4 108 -16 26 -17 41 -56 31
-81 -3 -9 -2 -13 4 -10 14 9 12 67 -3 86 -7 9 -22 21 -34 27 -24 13 -111 14
-158 2z"/>
<path d="M575 165 c-38 -7 -88 -18 -110 -24 l-40 -11 40 4 c67 7 249 37 254
42 9 8 -75 2 -144 -11z"/>
<path d="M199 133 c-13 -17 -13 -17 6 -3 11 8 22 16 24 17 2 2 0 3 -6 3 -6 0
-17 -8 -24 -17z"/>
<path d="M248 143 c7 -3 16 -2 19 1 4 3 -2 6 -13 5 -11 0 -14 -3 -6 -6z"/>
<path d="M840 107 c-26 -55 -69 -63 -272 -49 -95 7 -202 11 -238 10 -53 -1
-46 -3 40 -8 58 -4 172 -13 254 -20 138 -12 151 -12 182 5 18 9 38 30 44 46
17 40 8 54 -10 16z"/>
<path d="M238 53 c7 -3 16 -2 19 1 4 3 -2 6 -13 5 -11 0 -14 -3 -6 -6z"/>
</g>
</svg>
